<?xml version="1.0" encoding="UTF-8" standalone="no"?>
<svg
   xmlns:dc="http://purl.org/dc/elements/1.1/"
   xmlns:cc="http://creativecommons.org/ns#"
   xmlns:rdf="http://www.w3.org/1999/02/22-rdf-syntax-ns#"
   xmlns:svg="http://www.w3.org/2000/svg"
   xmlns="http://www.w3.org/2000/svg"
   xmlns:sodipodi="http://sodipodi.sourceforge.net/DTD/sodipodi-0.dtd"
   xmlns:inkscape="http://www.inkscape.org/namespaces/inkscape"
   width="16"
   height="16"
   version="1.1"
   id="svg4"
   sodipodi:docname="scribbler_eraserbucket.svg"
   inkscape:version="0.92.5 (2060ec1f9f, 2020-04-08)">
  <metadata
     id="metadata10">
    <rdf:RDF>
      <cc:Work
         rdf:about="">
        <dc:format>image/svg+xml</dc:format>
        <dc:type
           rdf:resource="http://purl.org/dc/dcmitype/StillImage" />
        <dc:title></dc:title>
      </cc:Work>
    </rdf:RDF>
  </metadata>
  <defs
     id="defs8" />
  <sodipodi:namedview
     pagecolor="#ffffff"
     bordercolor="#666666"
     borderopacity="1"
     objecttolerance="10"
     gridtolerance="10"
     guidetolerance="10"
     inkscape:pageopacity="0"
     inkscape:pageshadow="2"
     inkscape:window-width="1366"
     inkscape:window-height="713"
     id="namedview6"
     showgrid="false"
     inkscape:zoom="14.75"
     inkscape:cx="7.2984527"
     inkscape:cy="2.6537872"
     inkscape:window-x="0"
     inkscape:window-y="0"
     inkscape:window-maximized="1"
     inkscape:current-layer="svg4" />
  <path
     d="M 8.693,2.51 C 8.3984667,2.2150891 7.9205333,2.2150891 7.626,2.51 l -0.8,0.8 1.538,1.54 C 9.4021891,4.7910446 9.9637401,6.0454009 9.2285705,6.7805705 8.4934009,7.5157401 7.2390446,6.9541891 7.298,5.916 l -1.54,-1.54 -0.8,0.8 -1.6,-1.6 C 2.6473336,2.864667 3.7143336,1.798667 4.425,2.51 L 7.698,5.783 C 7.4981382,6.5283825 8.4139588,7.0567237 8.9593412,6.5113412 9.5047237,5.9659588 8.9763825,5.0501382 8.231,5.25 L 4.958,1.977 C 3.536343,0.61773687 1.4654034,2.687706 2.824,4.11 l 1.6,1.6 -3.2,3.201 c -0.29491092,0.2945333 -0.29491092,0.7724667 0,1.067 l 4.8103729,0.878169 c 0.2945333,0.294911 2.6707718,0.972878 2.9653051,0.677967 L 13.494,7.311 Z m 4.801,5.869 c -1.51,2.263 -1.51,2.263 -1.51,3.018 0,0.754 0.756,1.509 1.51,1.509 0.754,0 1.51,-0.755 1.51,-1.51 0,-0.754 0,-0.754 -1.51,-3.017 z"
     id="path2"
     inkscape:connector-curvature="0"
     style="fill:#e0e0e0"
     sodipodi:nodetypes="ccccsccccccscccccccccccsssc" />
  <path
     inkscape:connector-curvature="0"
     style="fill:#e0e0e0"
     d="m 4.424,5.71 -4.144068,3.8050835 3.5,3.5000025 h 4 l 2.415254,-2.618645 z m 0.855936,1.3050849 3,3.0000001 -1,1.000001 h -3 l -1.5,-1.5000025 z"
     id="path2-3"
     sodipodi:nodetypes="cccccccccccc" />
  <path
     style="opacity:1;vector-effect:none;fill:#ffffff;fill-opacity:1;stroke:#b45a2c;stroke-width:0;stroke-linecap:butt;stroke-linejoin:bevel;stroke-miterlimit:4;stroke-dasharray:none;stroke-dashoffset:0;stroke-opacity:1"
     d="M 3.519265,10.246392 2.791818,9.5166805 4.02952,8.2803349 5.267222,7.0439899 6.756924,8.5348465 8.246625,10.025705 7.775067,10.500904 7.30351,10.976103 H 5.775111 4.246713 Z"
     id="path832"
     inkscape:connector-curvature="0" />
  <path
     style="opacity:1;vector-effect:none;fill:#ffffff;fill-opacity:1;stroke:#b45a2c;stroke-width:0;stroke-linecap:butt;stroke-linejoin:bevel;stroke-miterlimit:4;stroke-dasharray:none;stroke-dashoffset:0;stroke-opacity:1"
     d="m 13.20352,12.037338 c -0.153563,-0.08361 -0.318982,-0.252431 -0.386266,-0.39422 -0.03158,-0.06656 -0.05229,-0.202738 -0.05209,-0.34263 4.08e-4,-0.286073 0.05523,-0.409151 0.448115,-1.006056 l 0.28626,-0.4349072 0.289931,0.4518562 c 0.416485,0.649091 0.445011,0.712609 0.447685,0.996837 0.002,0.209974 -0.01052,0.260579 -0.10024,0.405731 -0.152741,0.247129 -0.341241,0.365768 -0.601591,0.378633 -0.159462,0.0079 -0.240705,-0.0056 -0.331804,-0.05524 z"
     id="path834"
     inkscape:connector-curvature="0" />
</svg>
